<mxfile host="app.diagrams.net" modified="2024-04-24T10:02:02.242Z" agent="Mozilla/5.0 (Windows NT 10.0; Win64; x64) AppleWebKit/537.36 (KHTML, like Gecko) Chrome/124.0.0.0 Safari/537.36" version="24.2.9" etag="vDjERJXDBZ8fl3-yAEog" type="github">
  <diagram name="페이지-1" id="F7ivfUavhWiE550B49LN">
    <mxGraphModel>
      <root>
        <mxCell id="0" />
        <mxCell id="1" parent="0" />
      </root>
    </mxGraphModel>
  </diagram>
</mxfile>
